<svg viewBox="0 0 600 400" xmlns="http://www.w3.org/2000/svg">
  <!-- Background -->
  <rect width="600" height="400" fill="#f8fafc" rx="12" ry="12" />
  
  <!-- Header -->
  <rect x="20" y="20" width="560" height="60" rx="8" ry="8" fill="#f1f5f9" />
  <rect x="40" y="40" width="120" height="20" rx="4" ry="4" fill="#6366f1" />
  <circle cx="540" cy="50" r="15" fill="#a5b4fc" />
  
  <!-- Sidebar -->
  <rect x="20" y="100" width="160" height="280" rx="8" ry="8" fill="#f1f5f9" />
  
  <!-- Sidebar Menu Items -->
  <rect x="40" y="130" width="120" height="20" rx="4" ry="4" fill="#e0e7ff" />
  <rect x="40" y="170" width="120" height="20" rx="4" ry="4" fill="#e0e7ff" />
  <rect x="40" y="210" width="120" height="20" rx="4" ry="4" fill="#e0e7ff" />
  <rect x="40" y="250" width="120" height="20" rx="4" ry="4" fill="#e0e7ff" />
  <rect x="40" y="290" width="120" height="20" rx="4" ry="4" fill="#e0e7ff" />
  
  <!-- Main Content Area - Calendar -->
  <rect x="200" y="100" width="380" height="280" rx="8" ry="8" fill="#ffffff" />
  
  <!-- Calendar Header -->
  <rect x="220" y="120" width="340" height="40" rx="4" ry="4" fill="#f8fafc" />
  <rect x="240" y="130" width="80" height="20" rx="4" ry="4" fill="#a5b4fc" />
  <circle cx="490" cy="140" r="10" fill="#6366f1" />
  <circle cx="520" cy="140" r="10" fill="#6366f1" />
  
  <!-- Calendar Grid -->
  <rect x="220" y="170" width="340" height="190" rx="4" ry="4" fill="#f8fafc" />
  
  <!-- Calendar Days -->
  <line x1="220" y1="200" x2="560" y2="200" stroke="#e2e8f0" stroke-width="1" />
  <line x1="220" y1="230" x2="560" y2="230" stroke="#e2e8f0" stroke-width="1" />
  <line x1="220" y1="260" x2="560" y2="260" stroke="#e2e8f0" stroke-width="1" />
  <line x1="220" y1="290" x2="560" y2="290" stroke="#e2e8f0" stroke-width="1" />
  <line x1="220" y1="320" x2="560" y2="320" stroke="#e2e8f0" stroke-width="1" />
  
  <line x1="268" y1="170" x2="268" y2="360" stroke="#e2e8f0" stroke-width="1" />
  <line x1="316" y1="170" x2="316" y2="360" stroke="#e2e8f0" stroke-width="1" />
  <line x1="364" y1="170" x2="364" y2="360" stroke="#e2e8f0" stroke-width="1" />
  <line x1="412" y1="170" x2="412" y2="360" stroke="#e2e8f0" stroke-width="1" />
  <line x1="460" y1="170" x2="460" y2="360" stroke="#e2e8f0" stroke-width="1" />
  <line x1="508" y1="170" x2="508" y2="360" stroke="#e2e8f0" stroke-width="1" />
  
  <!-- Events -->
  <rect x="270" y="205" width="90" height="20" rx="4" ry="4" fill="#dbeafe" />
  <rect x="370" y="235" width="85" height="20" rx="4" ry="4" fill="#dbeafe" />
  <rect x="320" y="265" width="130" height="20" rx="4" ry="4" fill="#c7d2fe" />
  <rect x="225" y="295" width="80" height="20" rx="4" ry="4" fill="#e0e7ff" />
  <rect x="465" y="325" width="90" height="20" rx="4" ry="4" fill="#dbeafe" />
  
  <!-- Natural Language Input Box -->
  <rect x="220" y="370" width="340" height="40" rx="20" ry="20" fill="#f1f5f9" />
  <rect x="240" y="380" width="200" height="20" rx="4" ry="4" fill="#e2e8f0" />
  <circle cx="520" cy="390" r="15" fill="#6366f1" />
</svg>